<svg width="388" height="187" viewBox="0 0 388 187" fill="none" xmlns="http://www.w3.org/2000/svg">
<g id="demo-image-login">
<g id="display">
<path id="Vector" d="M255.145 0.293371H120.69V176.386H255.145V0.293371Z" fill="#E6E6E6"/>
<path id="Vector 2" d="M247.142 9.4182H128.693V41.4351H247.142V9.4182Z" fill="white"/>
<path id="Vector 3" d="M246.822 52.3209H173.191V167.582H246.822V52.3209Z" fill="white"/>
<path id="Vector 4" d="M208.912 21.3816H179.004V23.6299H208.912V21.3816Z" fill="#E6E6E6"/>
<path id="Vector 5" d="M212.642 27.2234H175.003V29.4717H212.642V27.2234Z" fill="#E6E6E6"/>
<path id="Vector 6" d="M223.638 78.9189H193.73V81.1672H223.638V78.9189Z" fill="#E6E6E6"/>
<path id="Vector 7" d="M239.914 85.5189H193.73V87.7671H239.914V85.5189Z" fill="#6C63FF"/>
<path id="Vector 8" d="M231.85 91.8045H194.211V94.0527H231.85V91.8045Z" fill="#E6E6E6"/>
<path id="Vector 9" d="M215.703 98.7012H193.73V100.949H215.703V98.7012Z" fill="#E6E6E6"/>
<path id="Vector 10" d="M226.893 105.438H193.73V107.686H226.893V105.438Z" fill="#6C63FF"/>
<path id="Vector 11" d="M183.761 78.2117H180.099V81.8744H183.761V78.2117Z" fill="#E6E6E6"/>
<path id="Vector 12" d="M183.761 84.8117H180.099V88.4744H183.761V84.8117Z" fill="#6C63FF"/>
<path id="Vector 13" d="M183.761 91.0972H180.099V94.7599H183.761V91.0972Z" fill="#E6E6E6"/>
<path id="Vector 14" d="M183.761 97.994H180.099V101.657H183.761V97.994Z" fill="#E6E6E6"/>
<path id="Vector 15" d="M183.761 104.731H180.099V108.393H183.761V104.731Z" fill="#6C63FF"/>
<path id="Vector 16" d="M223.638 112.217H193.73V114.465H223.638V112.217Z" fill="#E6E6E6"/>
<path id="Vector 17" d="M239.914 118.816H193.73V121.065H239.914V118.816Z" fill="#6C63FF"/>
<path id="Vector 18" d="M231.85 125.102H194.211V127.35H231.85V125.102Z" fill="#E6E6E6"/>
<path id="Vector 19" d="M215.703 131.999H193.73V134.247H215.703V131.999Z" fill="#E6E6E6"/>
<path id="Vector 20" d="M226.893 138.736H193.73V140.984H226.893V138.736Z" fill="#E6E6E6"/>
<path id="Vector 21" d="M183.761 111.509H180.099V115.172H183.761V111.509Z" fill="#E6E6E6"/>
<path id="Vector 22" d="M183.761 118.109H180.099V121.772H183.761V118.109Z" fill="#6C63FF"/>
<path id="Vector 23" d="M183.761 124.395H180.099V128.058H183.761V124.395Z" fill="#E6E6E6"/>
<path id="Vector 24" d="M183.761 131.292H180.099V134.954H183.761V131.292Z" fill="#E6E6E6"/>
<path id="Vector 25" d="M183.761 138.028H180.099V141.691H183.761V138.028Z" fill="#E6E6E6"/>
<path id="Vector 26" d="M148.184 15.9084C146.301 15.9084 144.461 16.4667 142.896 17.5124C141.331 18.5584 140.111 20.0449 139.391 21.7841C138.671 23.5233 138.482 25.4372 138.849 27.2836C139.217 29.1301 140.123 30.826 141.454 32.1572C142.785 33.4882 144.481 34.3949 146.327 34.7621C148.173 35.1294 150.087 34.9408 151.826 34.2204C153.565 33.5 155.051 32.2799 156.097 30.7149C157.143 29.1496 157.701 27.3092 157.701 25.4267C157.693 22.9044 156.689 20.4877 154.905 18.7044C153.122 16.921 150.706 15.9157 148.184 15.9084ZM148.184 18.7639C148.748 18.7639 149.301 18.9314 149.77 19.2452C150.24 19.5589 150.605 20.0049 150.822 20.5265C151.038 21.0483 151.094 21.6224 150.984 22.1763C150.874 22.7302 150.602 23.2393 150.203 23.6385C149.803 24.0378 149.295 24.3099 148.741 24.42C148.187 24.5302 147.613 24.4735 147.091 24.2574C146.569 24.0413 146.124 23.6753 145.81 23.2056C145.496 22.7363 145.328 22.184 145.328 21.6192C145.331 20.8626 145.633 20.1381 146.167 19.6031C146.702 19.0681 147.427 18.7665 148.184 18.7639ZM148.184 32.5104C147.056 32.5053 145.946 32.2251 144.951 31.694C143.956 31.1628 143.105 30.397 142.473 29.4627C142.519 27.559 146.28 26.5111 148.184 26.5111C150.087 26.5111 153.848 27.559 153.894 29.4627C153.261 30.3963 152.41 31.1615 151.416 31.6927C150.421 32.2235 149.311 32.5043 148.184 32.5104Z" fill="#6C63FF"/>
</g>
<g id="man">
<path id="Vector 27" d="M352.815 186.849C374.386 186.849 391.871 184.758 391.871 182.178C391.871 179.598 374.386 177.507 352.815 177.507C331.245 177.507 313.759 179.598 313.759 182.178C313.759 184.758 331.245 186.849 352.815 186.849Z" fill="#E6E6E6"/>
<path id="Vector 28" d="M343.189 57.0738C343.189 57.0738 346.438 63.9344 348.605 64.6567L342.466 74.0447L337.412 67.9064C337.412 67.9064 337.773 63.5732 336.69 61.7678C335.607 59.9624 343.189 57.0738 343.189 57.0738Z" fill="#FBBEBE"/>
<path id="Vector 29" d="M338.134 63.2121C341.922 63.2121 344.994 60.1407 344.994 56.3515C344.994 52.5626 341.922 49.4909 338.134 49.4909C334.345 49.4909 331.274 52.5626 331.274 56.3515C331.274 60.1407 334.345 63.2121 338.134 63.2121Z" fill="#FBBEBE"/>
<path id="Vector 30" d="M328.747 105.459L330.552 110.515L332.718 107.987L330.9 102.229L328.747 105.459Z" fill="#FBBEBE"/>
<path id="Vector 31" d="M333.801 102.932C333.801 102.932 331.635 111.959 332.718 116.292C333.801 120.625 337.051 150.234 337.051 150.234L339.217 173.704L347.882 174.427L346.8 146.984L347.882 123.153L354.019 146.262V174.427L364.49 174.788L363.408 138.318C363.408 138.318 364.129 110.153 359.436 106.543C354.742 102.932 354.019 102.209 354.019 102.209L333.801 102.932Z" fill="#2F2E41"/>
<path id="Vector 32" d="M341.022 173.343L340.3 175.871L339.217 179.121C339.217 179.121 335.968 185.62 341.383 184.537C346.8 183.454 346.076 180.926 346.076 180.926C346.076 180.926 347.882 179.843 347.52 179.482C347.158 179.121 347.158 173.704 347.158 173.704L341.022 173.343Z" fill="#2F2E41"/>
<path id="Vector 33" d="M361.961 173.343L362.685 175.871L363.767 179.121C363.767 179.121 367.016 185.62 361.603 184.537C356.186 183.454 356.91 180.926 356.91 180.926C356.91 180.926 355.104 179.843 355.463 179.482C355.824 179.121 355.824 173.704 355.824 173.704L361.961 173.343Z" fill="#2F2E41"/>
<path id="Vector 34" d="M342.466 69.7118L346.883 63.2121L355.104 67.5452L356.186 105.098C356.186 105.098 351.493 102.209 344.271 105.82C337.051 109.431 332.357 106.904 332.357 106.904L336.69 90.6547L334.885 68.9895L337.466 66.6459L342.466 69.7118Z" fill="#E6E6E6"/>
<path id="Vector 35" d="M337.467 65.9623L335.968 67.1841C335.968 67.1841 326.58 71.8784 326.22 75.1281L332.718 92.8213C332.718 92.8213 334.523 96.793 333.079 98.2376C331.635 99.6819 330.191 103.293 330.552 105.098C330.913 106.904 328.386 114.487 331.274 114.487C334.162 114.487 341.022 97.1542 340.661 90.2936C340.3 83.433 340.05 65.4625 337.467 65.9623Z" fill="#2F2E41"/>
<path id="Vector 36" d="M329.469 72.9615L327.243 73.1998C327.243 73.1998 325.136 74.767 325.136 78.3779C325.136 81.9887 324.775 92.8213 324.775 92.8213C324.775 92.8213 324.053 98.2376 326.22 102.209C328.386 106.181 328.747 107.265 328.747 107.265L332.357 102.932V93.9045L333.801 88.127L329.469 72.9615Z" fill="#2F2E41"/>
<path id="Vector 37" d="M345.798 61.7265L349.326 63.2121C349.326 63.2121 361.603 66.4621 363.408 71.8784L358.353 84.5161C358.353 84.5161 361.961 107.626 360.879 107.626H359.797C359.797 107.626 362.685 109.792 360.879 110.515C359.074 111.237 354.742 117.014 353.66 114.487C352.575 111.959 346.076 81.9887 346.8 75.4893C347.52 68.9895 345.154 62.4075 345.798 61.7265Z" fill="#2F2E41"/>
<path id="Vector 38" d="M340.842 47.5049V46.7829H339.036C339.036 46.7829 336.148 44.9775 333.621 47.1441C331.094 49.3103 330.01 50.3938 330.01 50.3938L328.927 51.8381L330.01 52.1992L328.927 53.2823H330.01L329.288 54.3655L331.312 57.0738C331.312 57.0738 331.094 54.3655 333.26 54.3655C335.426 54.3655 337.953 51.4769 337.953 51.4769L343.369 55.4489C343.369 55.4489 343.008 53.2926 344.271 53.2875C344.271 53.2875 344.813 47.866 340.842 47.5049Z" fill="#2F2E41"/>
<path id="Vector 39" d="M365.934 105.459L365.211 113.042C365.211 113.042 365.211 124.236 361.241 123.153C357.268 122.069 360.518 112.681 360.518 112.681L361.068 105.89L365.934 105.459Z" fill="#FBBEBE"/>
<path id="Vector 40" d="M357.992 70.073C357.992 70.073 362.685 68.2676 364.129 73.6839C365.572 79.1002 367.378 89.9324 367.378 89.9324C368.886 93.7613 368.886 98.0199 367.378 101.848L366.296 107.265L360.159 106.542L358.712 94.2656L357.268 78.739L357.992 70.073Z" fill="#2F2E41"/>
</g>
<g id="woman">
<path id="Vector 41" d="M35.7888 184.405C57.359 184.405 74.8449 182.314 74.8449 179.734C74.8449 177.154 57.359 175.063 35.7888 175.063C14.2186 175.063 -3.26733 177.154 -3.26733 179.734C-3.26733 182.314 14.2186 184.405 35.7888 184.405Z" fill="#E6E6E6"/>
<path id="Vector 42" d="M45.7468 55.9058C45.727 56.0054 45.7071 56.1021 45.6844 56.2017C44.6436 60.6437 44.8738 65.1398 46.1678 69.6817H24.5569L27.9692 54.0716C27.9683 52.9305 28.2122 51.8025 28.6844 50.7639C29.1569 49.7253 29.8468 48.8003 30.7073 48.0511C30.8523 47.9234 31.0031 47.7982 31.1594 47.6845C32.542 46.6388 34.2288 46.0747 35.9623 46.0776H37.8162C38.9328 46.076 40.0382 46.2991 41.0665 46.7346C41.2397 46.8085 41.4103 46.8879 41.5755 46.9734C45.1581 48.2189 47.3164 51.9075 46.8814 55.7182C46.3637 60.2515 47.1173 64.6906 48.9286 69.0504L47.7998 69.181C45.9943 64.8414 45.2407 60.4221 45.7468 55.9058Z" fill="#2F2E41"/>
<path id="Vector 43" d="M32.6608 58.164C32.6608 58.164 34.3671 65.5579 30.9548 66.1269C27.5425 66.6955 39.7696 68.402 39.7696 68.402C39.7696 68.402 38.9168 62.4299 40.9071 60.4391L32.6608 58.164Z" fill="#FBBEBE"/>
<path id="Vector 44" d="M18.4252 109.335C18.4252 109.335 17.7282 118.031 20.6946 118.148C23.6609 118.265 22.0132 109.586 22.0132 109.586L18.4252 109.335Z" fill="#FBBEBE"/>
<path id="Vector 45" d="M57.9681 113.619C57.9681 113.619 60.8119 121.866 57.9681 122.719C55.1247 123.573 54.5562 114.757 54.5562 114.757L57.9681 113.619Z" fill="#FBBEBE"/>
<path id="Vector 46" d="M42.8976 72.6673L46.8996 72.0567L48.5848 73.2366L50.0065 77.5022L53.4188 94.8499L55.9779 106.225L59.9588 114.188L53.4188 117.032L47.1628 96.5561L42.8976 72.6673Z" fill="#6C63FF"/>
<path id="Vector 47" d="M27.1161 93.8545C27.1161 93.8545 25.4098 105.23 26.5472 107.505C26.5472 107.505 24.4308 120.711 22.8507 129.403L20.5758 141.915L15.4575 160.969L23.7038 163.244L40.4806 116.605L45.3146 142.769L46.1678 161.538L54.9826 161.254L53.8452 128.549C53.8452 128.549 58.9635 106.936 50.1486 98.9734C41.3338 91.0104 39.9118 91.0104 39.9118 91.0104L27.1161 93.8545Z" fill="#2F2E41"/>
<path id="Vector 48" d="M52.2813 160.401L54.5562 168.079L55.9779 174.904C55.9779 174.904 61.0961 182.583 55.9779 181.729C50.8593 180.877 50.2907 178.032 50.2907 178.032V176.326L48.869 175.473V172.629C48.869 172.629 46.8784 171.207 48.869 168.932L48.0159 160.969L52.2813 160.401Z" fill="#2F2E41"/>
<path id="Vector 49" d="M17.5902 160.401L15.3154 168.079L13.8937 174.904C13.8937 174.904 8.77541 182.583 13.8937 181.729C19.012 180.877 19.5808 178.032 19.5808 178.032V176.326L21.0025 175.473V172.629C21.0025 172.629 22.9928 171.207 21.0025 168.932L21.8554 160.969L17.5902 160.401Z" fill="#2F2E41"/>
<path id="Vector 50" d="M38.0636 62.1453C41.9897 62.1453 45.1725 58.9621 45.1725 55.0356C45.1725 51.109 41.9897 47.9262 38.0636 47.9262C34.1375 47.9262 30.9548 51.109 30.9548 55.0356C30.9548 58.9621 34.1375 62.1453 38.0636 62.1453Z" fill="#FBBEBE"/>
<path id="Vector 51" d="M30.9548 64.7047C30.9548 64.7047 38.3479 67.8331 40.3385 67.2645C42.3287 66.6955 42.8976 69.2549 42.8976 69.2549L48.5848 73.2366L46.8785 82.9057C46.8785 82.9057 48.3002 88.0246 46.5942 91.4372C46.5942 91.4372 51.1439 92.8591 49.4376 95.1342C49.4376 95.1342 52.5656 96.8404 50.8593 100.253C50.8593 100.253 42.3287 97.978 41.4759 93.712L32.6608 94.8496L26.4051 99.6842C26.4051 99.6842 23.2774 99.3998 24.4148 94.8496C25.0832 92.0315 24.9849 89.0856 24.1302 86.318L21.0025 66.4112L30.9548 64.7047Z" fill="#6C63FF"/>
<path id="Vector 52" d="M21.944 66.1474L20.8088 66.4483C20.4128 66.5534 20.0584 66.7762 19.7921 67.0874L19.4239 67.5171C19.0599 67.9426 18.8422 68.4741 18.8032 69.0324L18.5503 72.658L18.1501 90.3083L18.5087 101.963L16.6394 110.667L23.682 111.789L24.6337 90.4005L22.8733 66.8089C22.8653 66.7003 22.8333 66.595 22.7798 66.4999C22.7264 66.4051 22.6528 66.3232 22.5641 66.2601C22.4754 66.197 22.3736 66.1541 22.2667 66.1346C22.1594 66.115 22.0493 66.1195 21.944 66.1474Z" fill="#6C63FF"/>
<path id="Vector 53" d="M39.4568 68.8711C38.2896 66.0443 36.5596 63.0565 35.4177 60.3747C34.6296 57.2416 34.4314 54.5595 36.2152 53.1872C36.2152 50.17 36.3205 48.2019 33.9233 46.7346C33.3462 46.9862 32.801 47.3054 32.2987 47.6855L32.2968 47.6845C32.202 47.7533 32.1101 47.8273 32.0192 47.9029C31.9808 47.9342 31.9437 47.9669 31.9059 47.9992C31.8857 48.0168 31.8649 48.0335 31.8447 48.0511L31.8467 48.0524C30.9858 48.8013 30.2956 49.7259 29.8228 50.7645C29.3503 51.8028 29.1057 52.9308 29.1063 54.0716V69.1128H37.9215C37.6298 67.8424 37.2418 66.5258 36.8398 65.2138C37.4762 66.4842 38.102 67.7633 38.6181 69.0103L39.4568 68.8711Z" fill="#2F2E41"/>
<path id="Vector 54" d="M46.1677 53.1872C42.3153 54.2675 37.9817 54.0895 33.3718 53.1872V47.4994H40.4806C41.9888 47.4994 43.4354 48.0988 44.5018 49.1653C45.5685 50.2321 46.1677 51.6786 46.1677 53.1872Z" fill="#2F2E41"/>
</g>
</g>
</svg>
