<svg width="720" height="1024" viewBox="0 0 720 1024" fill="none" xmlns="http://www.w3.org/2000/svg">
<g id="left-background-login">
<path id="bg-behind" d="M642 799.5C658 931.1 581.667 1004 541.5 1024H-68V-1H686C637.833 57.1667 565.2 202 660 316C754.8 430 716.833 525.167 686 558.5C664.667 584 626 667.9 642 799.5Z" fill="#6C63FF"/>
<path id="bg-above" d="M533 868.5C531.4 955.3 587.667 1008 616 1023.5H-15V-4H653C538 52.5 350.5 181.8 520.5 247C733 328.5 723.5 595.5 653 643.5C582.5 691.5 535 760 533 868.5Z" fill="#FE6D6D"/>
</g>
</svg>
