<svg width="181" height="167" viewBox="0 0 181 167" fill="none" xmlns="http://www.w3.org/2000/svg">
<g id="persian-logo">
<g id="head">
<g id="Group 1">
<path id="Vector 1" d="M27.0503 102.454C25.9374 55.3569 67.861 44.4245 85.9183 44.76C124.157 47.9466 146.886 72.5766 144.115 102.454C140.258 144.047 85.9183 139.519 85.9183 139.519C85.9183 139.519 28.0766 145.88 27.0503 102.454Z" fill="#F39C12"/>
<path id="Vector 2" d="M30.9078 39.0577C27.5535 50.7306 31.2991 66.1716 33.5912 72.433C47.0643 65.6685 71.3271 51.5021 60.5933 48.9529C47.1761 45.7663 35.1006 24.4665 30.9078 39.0577Z" fill="#F39C12"/>
</g>
<g id="Group 2">
<path id="Vector 2_2" d="M138.899 39.0839C142.253 50.7569 138.507 66.1978 136.215 72.4592C122.742 65.6947 98.4791 51.5283 109.213 48.9791C122.63 45.7925 134.706 24.4927 138.899 39.0839Z" fill="#F39C12"/>
</g>
<path id="Vector 4" d="M19.7506 123.586C16.3686 125.311 25.3411 113.132 28.304 110.84L43.8262 131.87C43.8655 131.883 43.8911 131.916 43.9015 131.972L43.8262 131.87C43.0571 131.617 37.0226 139.179 36.0189 139.519C34.9639 139.877 37.3606 127.276 37.3606 127.276C34.8668 128.146 28.9463 131.715 28.304 133.146C27.6617 134.576 30.2048 122.748 31.9938 120.567C29.6687 121.924 23.1325 121.861 19.7506 123.586Z" fill="#F39C12"/>
<path id="Vector 5" d="M150.489 121.98C153.871 123.715 144.899 111.467 141.936 109.163L126.413 130.31C126.374 130.323 126.348 130.357 126.338 130.413L126.413 130.31C127.182 130.056 133.217 137.66 134.221 138.002C135.276 138.362 132.879 125.69 132.879 125.69C135.373 126.566 141.293 130.155 141.936 131.593C142.578 133.032 140.035 121.137 138.246 118.944C140.571 120.309 147.107 120.246 150.489 121.98Z" fill="#F39C12"/>
</g>
<g id="snout">
<ellipse id="left" cx="79.405" cy="128.056" rx="9.89003" ry="8.01771" transform="rotate(-16.5908 79.405 128.056)" fill="#F1C40F"/>
<ellipse id="right" cx="90.8096" cy="128.056" rx="9.89003" ry="8.01771" transform="rotate(16.59 90.8096 128.056)" fill="#F1C40F"/>
</g>
<ellipse id="left-eye" cx="71.5" cy="108.794" rx="5.5" ry="10.5" fill="#6C63FF"/>
<ellipse id="right-eye" cx="98" cy="108.794" rx="6" ry="10.5" fill="#6C63FF"/>
<ellipse id="nose" cx="85" cy="123.794" rx="4" ry="2.5" fill="#6C63FF"/>
<path id="left-ear" d="M52.0171 53.2262C47.3568 55.6737 41.2293 62.2911 38.7481 65.2938C33.5699 61.0446 37.4535 42.0083 36.6444 41.3285C35.8353 40.6486 57.8426 50.1668 52.0171 53.2262Z" fill="#F1C40F"/>
<path id="right-ear" d="M117.983 53.2262C122.643 55.6737 128.771 62.2911 131.252 65.2938C136.43 61.0446 132.546 42.0083 133.356 41.3285C134.165 40.6486 112.157 50.1668 117.983 53.2262Z" fill="#F1C40F"/>
</g>
</svg>
